<?xml version="1.0" standalone="no"?>
<!DOCTYPE svg PUBLIC "-//W3C//DTD SVG 20010904//EN"
 "http://www.w3.org/TR/2001/REC-SVG-20010904/DTD/svg10.dtd">
<svg version="1.0" xmlns="http://www.w3.org/2000/svg"
 width="16.000000pt" height="16.000000pt" viewBox="0 0 16.000000 16.000000"
 preserveAspectRatio="xMidYMid meet">
<metadata>
Created by potrace 1.11, written by Peter Selinger 2001-2013
</metadata>
<g transform="translate(0.000000,16.000000) scale(0.003125,-0.003125)"
fill="#000000" stroke="none">
<path d="M2671 5100 c-7 -8 -9 -9 -5 -1 4 9 2 12 -7 9 -8 -3 -13 -14 -12 -24
1 -10 0 -13 -3 -6 -3 6 -10 12 -15 12 -6 0 -7 -4 -4 -10 3 -5 1 -10 -4 -10 -6
0 -11 5 -11 11 0 5 -4 8 -9 5 -5 -4 -12 0 -15 6 -3 7 -3 2 0 -12 5 -20 4 -23
-7 -13 -10 10 -15 9 -26 -5 -14 -16 -14 -16 -9 1 4 13 2 16 -7 10 -6 -4 -18
-8 -25 -9 -8 -2 -20 -11 -29 -21 -8 -10 -12 -13 -9 -7 3 6 -1 11 -8 11 -9 0
-12 -7 -8 -16 5 -13 1 -13 -23 3 -22 14 -26 15 -17 4 9 -11 10 -18 2 -23 -5
-3 -10 -2 -10 3 0 5 -7 9 -15 9 -12 0 -12 -3 -2 -16 10 -12 9 -13 -2 -7 -8 5
-17 3 -23 -5 -8 -11 -9 -10 -4 4 3 9 1 17 -4 17 -9 0 -14 -15 -11 -33 1 -5 -3
-6 -9 -2 -6 3 -8 10 -6 14 3 4 -1 8 -9 8 -8 0 -12 -4 -9 -9 3 -4 -4 -8 -15 -8
-12 0 -21 -6 -21 -12 0 -9 -4 -8 -10 2 -9 14 -14 7 -11 -13 1 -4 -8 -3 -19 3
-17 9 -25 6 -47 -17 -14 -15 -23 -23 -20 -17 9 16 -16 25 -34 12 -11 -8 -11
-9 2 -5 9 3 16 -1 16 -8 0 -15 -27 -8 -39 9 -5 7 -8 5 -8 -5 0 -19 -37 -32
-46 -18 -4 6 -11 6 -19 -1 -8 -6 -22 -10 -32 -8 -14 2 -17 -3 -16 -22 3 -23 2
-23 -8 -6 -11 18 -12 18 -26 -5 -14 -23 -14 -23 -10 -2 5 21 4 22 -16 8 -16
-11 -24 -12 -36 -3 -13 10 -14 10 -3 -2 17 -20 15 -26 -10 -27 -18 -2 -20 0
-8 7 9 6 10 10 3 10 -6 0 -15 -5 -19 -11 -3 -6 -17 -9 -30 -6 -13 2 -21 1 -19
-3 3 -4 -2 -13 -9 -19 -11 -9 -16 -9 -22 0 -5 8 -3 9 6 4 9 -5 11 -4 6 3 -5 9
-12 9 -26 0 -10 -7 -16 -17 -12 -23 3 -5 -3 -3 -13 5 -10 8 -16 11 -13 5 3 -5
-1 -17 -10 -24 -14 -13 -15 -12 -10 7 4 12 2 20 -3 16 -5 -3 -9 -13 -10 -22 0
-11 -3 -12 -6 -4 -2 6 -9 12 -14 12 -6 0 -7 -6 -3 -12 5 -8 0 -7 -11 2 -17 14
-17 13 -10 -10 7 -25 7 -25 -10 -5 -9 11 -14 15 -11 8 4 -6 2 -14 -4 -18 -5
-3 -10 -1 -10 5 0 6 -5 8 -10 5 -6 -4 -8 -10 -6 -13 2 -4 -11 -7 -30 -6 -19 1
-37 -3 -41 -9 -4 -6 -1 -7 7 -2 9 5 11 4 6 -4 -4 -6 -13 -8 -19 -4 -18 11 -47
11 -54 0 -3 -6 -1 -7 4 -4 6 4 13 0 16 -8 4 -9 1 -12 -10 -8 -8 3 -19 0 -25
-8 -8 -11 -9 -10 -4 3 7 24 -9 31 -25 11 -12 -14 -12 -16 1 -8 13 7 13 6 1 -6
-10 -11 -15 -11 -18 -1 -3 6 -9 12 -15 12 -6 0 -8 -6 -5 -13 3 -8 0 -14 -6
-14 -7 0 -21 -4 -31 -9 -13 -5 -17 -4 -12 4 3 6 1 14 -5 18 -7 4 -9 3 -6 -3 8
-12 -20 -26 -33 -18 -5 3 -7 -3 -5 -14 2 -13 -2 -18 -13 -16 -9 1 -21 -3 -25
-9 -6 -7 -7 -4 -3 6 3 10 0 20 -6 24 -6 4 -8 3 -5 -3 4 -6 0 -17 -9 -24 -13
-10 -17 -10 -24 1 -5 8 -12 11 -16 7 -4 -3 -1 -15 7 -24 13 -16 12 -17 -3 -5
-11 9 -18 10 -23 2 -3 -5 -11 -10 -17 -10 -6 0 -5 7 3 18 13 16 13 16 -7 0
-23 -20 -39 -24 -28 -6 4 7 3 8 -5 4 -9 -6 -9 -11 0 -22 10 -12 10 -15 -2 -12
-8 2 -17 7 -21 13 -5 6 -12 5 -20 -4 -11 -11 -11 -13 1 -6 10 5 12 4 7 -4 -4
-6 -11 -9 -16 -6 -4 3 -10 2 -13 -2 -2 -5 -2 -3 -1 4 2 7 -2 15 -8 19 -7 4 -8
3 -4 -4 4 -7 2 -12 -4 -12 -6 0 -8 -5 -5 -10 4 -6 3 -10 -2 -9 -21 4 -34 -2
-27 -13 5 -7 3 -8 -5 -3 -9 5 -10 10 -2 18 6 6 11 15 11 21 0 5 -6 2 -13 -9
-8 -10 -19 -15 -25 -11 -6 3 -14 1 -18 -5 -4 -7 -3 -9 3 -6 6 4 13 1 16 -6 3
-9 -6 -11 -36 -8 -31 3 -38 1 -31 -10 6 -12 5 -12 -9 0 -10 8 -20 11 -24 7 -3
-3 -1 -6 6 -6 7 0 9 -5 6 -10 -4 -6 -11 -8 -16 -4 -5 3 -16 0 -24 -6 -12 -10
-13 -8 -10 9 2 12 0 19 -6 16 -5 -4 -7 -11 -4 -16 4 -5 1 -9 -5 -9 -6 0 -9 -4
-5 -9 3 -5 0 -13 -6 -17 -7 -4 -9 -3 -6 3 4 6 0 13 -8 17 -8 3 -17 0 -21 -6
-5 -7 -2 -8 6 -3 8 5 11 4 7 -2 -4 -6 -22 -10 -42 -10 -23 1 -40 -5 -50 -18
-12 -17 -14 -17 -9 -2 3 9 1 17 -5 17 -6 0 -11 -6 -11 -14 0 -8 -5 -18 -12
-22 -7 -4 -8 -3 -4 4 4 7 3 12 -2 12 -6 0 -13 -7 -16 -16 -5 -13 -9 -14 -21
-4 -10 8 -15 9 -15 2 0 -6 -6 -9 -14 -6 -8 3 -20 -3 -27 -14 -12 -19 -14 -19
-26 -4 -12 16 -12 16 -13 0 0 -12 -7 -15 -26 -12 -19 3 -24 1 -18 -8 5 -8 1
-7 -11 2 -17 14 -17 13 -12 -10 4 -14 4 -19 1 -12 -3 6 -13 12 -21 12 -13 0
-13 -3 -2 -17 13 -17 13 -17 -6 -1 -13 11 -25 14 -34 8 -8 -4 -21 -6 -29 -2
-11 4 -14 1 -9 -12 4 -9 3 -15 -2 -11 -5 3 -11 2 -14 -2 -2 -5 -2 -3 -1 4 2 7
-2 15 -8 19 -7 4 -8 3 -4 -4 4 -7 2 -12 -4 -12 -6 0 -8 -5 -4 -12 5 -8 0 -7
-11 2 -10 8 -16 10 -12 4 4 -7 0 -14 -8 -17 -9 -4 -13 -1 -9 11 2 9 -1 5 -9
-10 l-12 -27 -19 22 -19 22 6 -21 c4 -18 1 -22 -19 -19 -13 1 -24 -3 -24 -9 0
-7 -3 -6 -8 2 -6 9 -13 7 -29 -7 -11 -11 -23 -18 -25 -16 -2 2 -4 -4 -4 -14 0
-11 6 -17 13 -14 19 7 16 -7 -4 -24 -10 -8 -13 -12 -6 -8 7 3 17 -4 23 -16 8
-15 9 -19 1 -15 -6 4 -11 2 -11 -3 0 -6 5 -11 12 -11 9 0 9 -3 0 -12 -7 -7
-12 -17 -12 -23 0 -5 5 -3 11 5 8 12 9 12 7 -5 -1 -11 1 -26 6 -34 6 -10 5
-12 -2 -7 -8 5 -10 2 -6 -9 4 -8 0 -23 -7 -33 -13 -15 -12 -16 3 -4 24 19 33
-3 14 -34 -10 -14 -12 -23 -5 -22 6 2 14 -3 16 -9 3 -7 0 -13 -6 -13 -6 0 -11
-5 -11 -11 0 -5 4 -7 10 -4 5 3 10 -3 10 -15 0 -14 -4 -19 -12 -14 -9 5 -9 2
1 -9 9 -12 10 -17 2 -17 -8 0 -8 -4 1 -14 7 -8 15 -13 18 -11 3 2 5 -10 5 -25
1 -16 -3 -26 -7 -24 -15 10 -8 -9 10 -23 9 -8 12 -12 5 -9 -6 4 -14 2 -18 -4
-3 -5 -1 -10 6 -10 8 0 9 -3 0 -14 -9 -10 -8 -16 4 -26 19 -15 20 -36 2 -24
-7 5 -5 2 5 -7 15 -14 15 -18 3 -23 -13 -4 -12 -10 0 -40 17 -41 18 -49 6 -42
-11 7 -8 -21 4 -31 4 -4 5 -2 1 4 -5 9 -2 11 9 6 13 -5 14 -7 3 -14 -7 -5 -9
-9 -4 -9 5 0 2 -8 -5 -17 -8 -9 -9 -14 -3 -10 7 4 15 0 18 -9 4 -11 2 -15 -7
-11 -10 4 -13 -2 -9 -20 3 -18 7 -21 13 -11 5 7 9 8 9 2 0 -6 -3 -14 -7 -18
-15 -14 -10 -56 6 -57 10 0 12 -2 4 -6 -7 -2 -13 -9 -13 -14 0 -6 5 -7 12 -3
6 4 8 3 4 -4 -3 -5 0 -13 6 -16 7 -3 6 -4 -4 -3 -9 1 -17 -2 -17 -8 -1 -5 4
-11 9 -11 6 -1 13 -2 17 -3 4 0 -2 -8 -13 -17 -10 -8 -14 -13 -7 -10 13 7 22
-12 15 -36 -2 -10 -9 -15 -16 -11 -8 5 -8 3 0 -8 6 -8 10 -22 9 -31 -2 -10 2
-21 7 -25 7 -4 8 -1 3 7 -5 8 -4 11 1 7 14 -8 9 -57 -7 -69 -10 -7 -7 -7 11
-3 20 6 23 5 13 -6 -7 -7 -13 -17 -13 -22 0 -4 6 -5 13 -1 8 5 8 2 -2 -9 -7
-9 -9 -17 -3 -17 5 0 13 -7 16 -16 5 -13 3 -14 -7 -6 -10 8 -13 6 -13 -8 0
-10 3 -17 7 -14 4 2 9 -6 13 -19 8 -32 7 -39 -4 -32 -6 4 -8 10 -5 15 3 5 1
11 -4 14 -5 4 -8 -2 -6 -11 2 -10 4 -18 5 -18 1 0 3 -8 5 -18 2 -10 12 -25 22
-33 17 -13 17 -14 -2 -7 -19 7 -19 6 -3 -19 13 -19 15 -29 6 -34 -7 -5 -8 -3
-3 6 6 9 4 11 -5 5 -10 -6 -8 -12 9 -27 13 -10 18 -18 12 -18 -7 0 -10 -4 -6
-9 3 -6 -3 -15 -12 -21 -17 -11 -17 -11 0 -6 19 6 24 -10 5 -17 -10 -4 -9 -6
1 -6 10 -1 11 -4 2 -15 -9 -11 -9 -16 0 -22 8 -4 9 -3 5 4 -4 7 -2 12 3 12 14
0 14 -17 0 -25 -6 -5 -4 -12 8 -22 10 -8 13 -12 6 -9 -6 4 -14 2 -18 -4 -6 -9
8 -14 28 -11 5 1 6 -3 2 -9 -3 -6 -11 -8 -16 -5 -15 10 -10 -7 8 -28 10 -11
12 -17 6 -13 -8 4 -13 1 -13 -8 0 -8 -6 -17 -12 -20 -7 -3 -3 -3 9 0 19 4 21
2 18 -18 -3 -12 1 -26 8 -31 9 -6 8 -8 -3 -4 -11 3 -16 -2 -16 -18 0 -13 4
-21 8 -19 8 5 12 -11 9 -30 -1 -5 1 -16 5 -25 4 -9 8 -27 10 -40 3 -22 2 -22
-11 -5 -12 17 -13 16 -8 -9 3 -15 9 -27 13 -27 4 0 11 -7 14 -16 6 -15 4 -15
-10 -3 -16 13 -16 12 -6 -7 8 -16 8 -24 -1 -33 -9 -10 -8 -11 8 -5 11 4 17 4
13 -1 -4 -4 -2 -15 4 -24 10 -13 10 -14 -2 -4 -8 7 -19 13 -24 13 -6 -1 0 -10
13 -20 16 -14 19 -20 8 -20 -10 0 -13 -6 -10 -20 3 -11 10 -20 16 -20 6 0 2
-7 -9 -15 -16 -12 -17 -16 -4 -24 8 -5 18 -7 22 -5 4 3 8 0 8 -5 0 -6 -8 -11
-17 -11 -13 0 -15 -2 -5 -8 8 -5 10 -16 6 -27 -5 -13 -4 -16 5 -11 8 5 7 -4
-3 -31 -15 -35 -15 -36 0 -18 15 20 16 19 12 -5 -2 -17 1 -24 10 -22 8 1 11
-2 7 -8 -4 -6 -14 -9 -22 -5 -12 4 -13 3 -5 -8 7 -8 9 -17 5 -20 -3 -4 -1 -7
7 -7 9 0 10 -3 1 -14 -8 -10 -6 -19 9 -39 15 -18 17 -28 9 -33 -8 -5 -9 -3 -4
6 6 9 4 11 -5 5 -9 -6 -11 -4 -5 5 5 9 4 11 -4 6 -8 -6 -9 -12 -2 -20 7 -9 7
-17 -2 -26 -10 -12 -9 -12 6 -1 12 10 17 10 17 2 0 -7 5 -9 12 -5 7 4 8 3 4
-5 -4 -6 -12 -9 -17 -6 -5 4 -9 1 -9 -4 0 -6 6 -11 13 -11 8 0 7 -4 -3 -10
-12 -8 -13 -11 -1 -19 11 -7 11 -9 0 -14 -10 -4 -9 -6 4 -6 9 -1 17 -6 17 -12
0 -6 -7 -8 -16 -5 -15 6 -15 4 -3 -10 16 -20 21 -47 7 -38 -6 4 -8 3 -5 -3 13
-21 15 -63 4 -63 -7 0 -6 -4 3 -9 8 -6 19 -7 25 -3 5 3 3 -2 -5 -12 -14 -18
-22 -79 -9 -70 4 2 12 -3 19 -11 11 -13 10 -14 -3 -9 -16 6 -18 -10 -4 -33 4
-6 1 -14 -5 -16 -7 -3 -3 -6 10 -6 13 -1 21 -5 18 -10 -3 -5 1 -12 10 -15 8
-3 12 -10 9 -16 -4 -6 1 -7 12 -3 10 3 15 3 11 -2 -9 -9 16 -35 34 -35 17 -1
53 -28 46 -35 -3 -3 -11 1 -18 10 -7 8 -17 15 -22 15 -6 0 0 -9 13 -19 13 -10
31 -17 41 -16 10 2 20 -4 23 -16 4 -10 11 -19 16 -19 6 0 7 -4 4 -10 -9 -14 8
-12 25 3 8 6 12 8 8 3 -4 -4 3 -18 16 -30 12 -11 14 -15 4 -7 -15 12 -21 12
-31 1 -9 -10 -9 -11 1 -6 7 4 20 2 29 -6 9 -7 28 -13 42 -13 15 0 25 -5 24
-12 -2 -7 6 -17 17 -23 11 -6 20 -18 20 -27 0 -10 6 -14 19 -10 15 4 19 0 16
-14 -2 -10 1 -22 7 -25 7 -4 8 -2 4 4 -4 7 -1 12 9 12 9 0 13 -4 10 -10 -3 -5
-1 -10 5 -10 6 0 8 -5 4 -12 -5 -9 -2 -9 9 1 9 7 17 9 17 4 0 -5 7 -18 16 -29
8 -10 13 -13 9 -7 -3 7 -1 13 4 13 6 0 11 -9 11 -21 0 -11 4 -18 9 -15 4 3 18
-3 30 -13 21 -19 29 -37 11 -26 -5 3 -10 1 -10 -4 0 -14 6 -14 30 -1 16 8 18
7 15 -9 -3 -14 1 -18 11 -14 18 7 47 -16 40 -32 -2 -6 6 -17 17 -24 18 -11 20
-11 10 0 -18 19 -16 33 2 15 8 -8 15 -21 15 -29 0 -22 29 -42 41 -30 8 8 6 11
-6 10 -10 -1 -20 5 -22 13 -4 12 -2 12 5 2 5 -7 15 -12 23 -10 9 2 14 -5 13
-20 -1 -18 1 -20 13 -10 8 6 13 7 12 2 -1 -5 -1 -16 0 -24 1 -11 4 -11 13 -2
15 15 28 15 28 1 0 -5 -4 -7 -10 -4 -5 3 -10 0 -10 -8 0 -9 9 -14 22 -13 15 1
27 -8 36 -26 7 -16 22 -33 33 -38 11 -6 17 -15 15 -19 -3 -4 2 -8 11 -8 11 0
6 10 -17 29 -45 37 -33 36 15 -2 20 -16 41 -27 46 -24 5 3 6 -3 2 -12 -5 -13
-3 -15 8 -9 12 7 12 6 1 -7 -11 -14 -10 -16 7 -11 13 3 21 1 21 -6 0 -7 -5 -9
-12 -5 -7 4 -8 3 -4 -4 4 -7 17 -17 29 -22 21 -11 21 -10 3 4 -18 14 -18 15 2
13 11 0 20 -4 20 -7 -2 -21 4 -30 20 -30 27 0 64 -43 56 -66 -4 -14 -3 -15 4
-6 8 12 15 11 41 -2 34 -18 41 -28 13 -20 -9 3 -3 -3 13 -12 17 -10 34 -17 38
-16 4 1 10 -5 13 -13 3 -8 11 -12 18 -8 6 4 4 -2 -4 -12 -9 -11 -10 -16 -3
-11 7 4 13 2 13 -3 0 -6 7 -11 16 -11 9 0 12 -5 8 -12 -5 -9 -2 -8 9 1 10 8
20 11 24 7 3 -3 1 -6 -5 -6 -14 0 -16 -26 -3 -35 5 -3 13 0 17 6 4 8 3 9 -4 5
-7 -4 -12 -2 -12 3 0 20 20 11 29 -12 5 -12 41 -49 81 -81 40 -31 69 -53 65
-47 -3 6 -1 11 4 11 6 0 11 -7 11 -16 0 -10 5 -14 16 -10 10 4 13 2 8 -6 -5
-7 -2 -9 8 -6 11 5 14 0 13 -17 -3 -19 1 -22 26 -20 25 2 28 0 17 -13 -11 -13
-10 -14 10 -8 18 6 21 4 16 -9 -5 -12 -2 -16 12 -13 11 2 22 -6 30 -20 8 -17
13 -20 17 -10 4 9 6 8 6 -4 1 -9 6 -20 13 -24 7 -4 8 -3 4 4 -5 8 -1 10 9 6 9
-4 14 -13 10 -22 -5 -12 -3 -13 10 -2 13 11 16 11 13 -1 -2 -8 4 -13 15 -12
10 0 16 -1 13 -5 -3 -3 2 -11 12 -19 16 -12 16 -13 -3 -7 -18 5 -18 4 -2 -6 9
-6 22 -8 27 -5 6 3 10 1 10 -4 0 -6 -5 -11 -12 -11 -6 0 -8 -3 -5 -6 4 -4 13
-1 21 5 11 9 16 9 22 0 4 -8 3 -9 -4 -5 -7 4 -12 2 -12 -3 0 -10 13 -15 32
-12 4 0 10 -8 13 -19 6 -18 18 -24 51 -23 6 0 10 -12 8 -30 -3 -24 -1 -27 10
-18 11 9 15 9 18 0 2 -7 12 -13 22 -15 12 -2 16 2 12 12 -3 8 -1 14 3 14 5 0
12 -6 14 -12 4 -10 6 -9 6 1 1 11 4 11 16 1 13 -11 14 -10 10 3 -4 8 -1 18 6
23 8 5 10 3 4 -6 -5 -9 -4 -11 3 -6 7 4 12 15 12 24 1 15 3 14 16 -3 15 -19
15 -19 12 -1 -2 10 3 21 11 24 10 3 11 0 5 -9 -7 -12 -5 -12 9 0 9 7 17 21 17
30 0 13 2 13 9 2 7 -11 10 -9 16 8 3 12 11 18 17 15 6 -4 5 -9 -3 -15 -7 -4
-11 -11 -7 -14 3 -4 18 10 33 30 25 32 29 34 45 20 14 -13 17 -13 17 0 0 8 -5
11 -10 8 -6 -4 -7 -1 -3 6 5 7 15 10 23 7 10 -4 13 -2 10 8 -4 10 2 13 23 11
21 -2 27 1 23 11 -3 8 1 14 11 14 9 0 16 6 16 13 0 8 4 7 10 -3 8 -12 10 -10
10 10 0 14 3 20 8 14 8 -13 48 -12 59 1 5 4 2 5 -4 1 -7 -4 -13 -2 -13 4 0 6
-5 8 -10 5 -6 -3 -10 -1 -10 5 0 6 10 8 26 4 18 -5 25 -3 20 4 -3 6 -1 14 5
18 8 4 9 3 5 -4 -4 -7 -1 -12 9 -12 11 0 15 5 12 14 -4 10 0 13 14 11 15 -3
19 0 15 11 -3 8 -2 13 3 9 5 -3 11 -2 14 2 2 5 2 2 0 -6 -3 -11 -1 -11 12 -1
8 7 12 17 8 24 -4 6 2 4 12 -4 10 -8 16 -10 12 -3 -4 6 -3 14 3 18 5 3 10 1
10 -6 0 -7 3 -9 8 -5 4 4 7 13 7 18 0 6 7 13 15 15 13 4 13 3 0 -6 -8 -6 -10
-11 -4 -11 6 0 19 10 28 22 9 13 14 17 10 9 -4 -9 -2 -12 7 -9 8 3 13 11 11
18 -3 11 0 11 13 0 13 -11 15 -10 9 4 -4 10 -1 16 7 16 7 0 21 8 32 17 11 10
17 12 13 6 -4 -7 -3 -13 2 -13 6 0 13 7 16 16 5 13 9 14 20 5 11 -9 16 -9 22
0 4 7 3 10 -2 7 -5 -3 -15 0 -22 8 -11 12 -9 14 17 9 26 -4 29 -3 24 12 -6 15
-4 16 8 6 10 -8 19 -9 29 -1 13 8 12 9 -2 4 -12 -3 -15 -1 -11 9 4 11 10 12
25 4 15 -8 19 -8 14 0 -4 6 -2 11 4 11 6 0 8 5 4 13 -5 7 0 6 11 -3 17 -14 18
-13 12 4 -6 14 -4 17 8 12 8 -3 15 -2 15 2 0 4 10 13 23 21 22 14 22 14 3 -8
-11 -11 -17 -24 -14 -27 3 -3 15 11 27 30 14 22 27 33 37 29 9 -3 14 1 14 12
0 9 5 13 10 10 6 -4 7 -11 4 -17 -5 -7 -2 -8 5 -4 7 5 10 15 6 23 -5 14 -3 14
12 2 11 -9 14 -10 9 -2 -4 8 -2 13 4 13 6 0 8 5 4 11 -4 7 1 7 16 -1 19 -10
22 -9 27 9 6 22 44 38 62 26 7 -3 8 0 5 9 -3 9 -1 16 6 16 6 0 8 5 4 12 -4 7
-3 8 4 4 6 -4 10 -12 8 -19 -1 -7 -1 -9 1 -4 3 4 9 5 13 2 5 -3 7 3 5 13 -2
14 3 18 25 16 23 -2 27 1 22 15 -5 14 -3 14 11 3 14 -12 16 -11 12 7 -3 18 -1
20 15 11 17 -9 19 -8 13 7 -3 10 -3 15 1 11 5 -4 20 4 34 18 29 26 42 30 42
13 0 -5 -4 -8 -9 -4 -5 3 -12 1 -16 -5 -3 -5 1 -10 10 -10 9 0 19 9 22 20 3
11 10 20 15 20 5 0 7 -4 4 -8 -3 -5 1 -9 9 -9 11 0 12 5 3 20 -6 12 -6 17 0
13 5 -3 15 1 22 9 9 11 16 12 25 5 9 -7 16 -5 26 7 13 17 13 17 -6 3 -18 -14
-19 -14 -6 2 10 13 18 15 32 8 14 -8 17 -7 13 4 -5 14 10 29 34 32 6 1 12 -3
13 -9 0 -7 4 -2 9 9 5 14 21 24 45 28 35 7 36 8 19 22 -17 13 -17 13 8 4 24
-8 30 -5 54 23 14 18 23 26 19 18 -5 -9 -3 -12 6 -9 8 3 13 10 12 17 -3 12 41
26 55 17 5 -3 15 1 22 9 7 8 20 15 29 15 13 0 13 2 2 9 -11 7 -11 10 0 17 20
12 40 14 33 3 -3 -5 -10 -6 -16 -3 -7 4 -8 2 -4 -5 10 -15 36 4 37 28 0 9 3
11 5 4 7 -17 56 6 50 23 -3 8 2 11 14 9 11 -2 25 2 32 9 7 7 20 10 28 8 13 -5
13 -3 0 13 -14 17 -14 18 10 5 23 -12 24 -12 11 4 -8 9 -10 16 -5 15 22 -4 45
2 39 10 -3 5 -1 12 4 15 5 4 13 1 17 -5 5 -8 3 -9 -6 -4 -9 5 -11 4 -6 -4 4
-6 12 -9 17 -5 5 3 7 10 4 15 -4 5 7 12 24 15 17 4 28 10 25 15 -3 5 2 9 11 9
10 0 13 -5 9 -12 -4 -7 -3 -8 5 -4 9 6 9 11 1 21 -9 11 -6 13 15 10 20 -2 25
1 20 13 -4 12 -3 12 9 3 11 -9 16 -9 22 0 5 8 3 10 -7 5 -8 -4 -5 0 5 8 26 21
37 20 30 -1 -5 -15 -4 -15 4 -3 7 8 7 19 2 25 -6 7 -2 11 11 12 12 1 17 -3 13
-10 -3 -7 0 -5 8 4 7 9 19 14 27 11 8 -3 11 0 7 7 -4 6 -2 11 4 11 6 0 8 5 5
10 -4 6 -1 9 7 8 8 -2 13 6 12 20 -1 14 3 21 11 19 8 -4 10 3 7 20 -3 17 -7
21 -12 12 -5 -7 -7 -2 -7 14 1 15 6 22 12 17 6 -5 10 1 10 15 0 13 -3 21 -6
19 -4 -2 -9 4 -11 14 -3 11 0 19 8 19 7 0 10 -5 7 -10 -3 -6 -1 -7 5 -3 9 5 8
13 -3 30 -13 20 -13 25 2 46 9 13 11 20 5 16 -7 -4 -12 -2 -12 3 0 6 6 11 13
11 8 0 7 4 -3 10 -10 6 -11 10 -2 10 6 0 12 5 12 11 0 5 -4 7 -10 4 -5 -3 -10
-2 -10 4 0 5 6 12 13 14 10 4 10 6 0 6 -7 1 -13 6 -13 12 0 5 5 7 11 3 8 -5 8
-1 0 14 -8 16 -7 21 5 26 9 4 12 11 7 18 -4 7 -8 19 -9 26 -2 10 1 11 12 1 12
-10 13 -9 8 5 -3 9 -10 16 -16 16 -5 0 -7 9 -3 19 3 11 1 22 -5 26 -6 3 -8 11
-4 16 3 5 9 7 13 4 5 -2 8 8 9 23 0 15 2 48 4 74 2 26 1 45 -2 43 -3 -2 -7 5
-7 16 -1 10 3 19 8 19 6 0 7 -5 3 -12 -4 -7 -3 -8 4 -4 6 4 8 14 5 22 -3 9 0
20 8 26 11 8 11 9 -2 5 -12 -4 -17 1 -17 19 1 14 5 21 11 17 6 -4 7 -1 3 6
-10 15 -13 111 -5 105 4 -2 10 3 13 12 3 8 2 12 -4 9 -6 -3 -10 -3 -11 2 0 4
-2 16 -4 25 -2 10 2 15 9 12 7 -3 13 2 13 10 0 8 -5 12 -11 9 -6 -3 -5 0 2 8
15 16 16 29 1 29 -5 0 -7 -5 -3 -12 5 -7 3 -8 -6 -3 -10 6 -9 11 5 22 13 9 14
13 5 13 -9 0 -7 5 6 14 18 14 18 15 -6 25 -16 6 -19 10 -9 10 24 1 31 29 11
40 -16 10 -16 10 1 11 9 0 17 5 17 10 0 6 -5 10 -11 10 -6 0 -3 7 5 16 20 20
21 30 1 14 -9 -7 -18 -10 -22 -6 -3 3 -2 6 4 6 13 0 14 53 1 61 -5 3 -2 9 7
12 11 5 14 3 9 -6 -4 -6 -3 -9 1 -4 5 4 10 17 12 29 3 17 1 19 -11 9 -12 -10
-13 -9 -9 8 3 12 9 19 12 16 4 -2 8 2 8 10 0 8 -3 12 -6 10 -4 -2 -6 25 -6 60
0 35 2 62 5 60 3 -2 10 7 17 20 7 16 7 23 1 22 -6 -1 -13 4 -16 12 -3 9 0 11
8 6 9 -6 9 -3 1 13 -8 15 -8 21 0 24 16 5 20 68 4 68 -6 0 -12 7 -12 15 0 10
4 12 12 5 8 -7 12 -5 12 5 0 8 -4 15 -9 15 -5 0 -6 6 -1 13 12 19 12 37 1 37
-6 0 -2 8 9 18 10 9 13 13 5 8 -11 -8 -12 -4 -6 19 5 21 4 26 -5 20 -14 -8 7
34 24 48 6 5 3 7 -7 3 -10 -3 -20 -1 -23 3 -2 5 3 11 14 14 12 3 17 12 15 28
-1 13 -3 28 -3 32 -1 5 -7 5 -13 1 -7 -4 -10 -4 -6 1 4 4 2 15 -5 24 -10 14
-10 14 5 3 11 -9 18 -10 23 -2 3 5 1 10 -6 10 -8 0 -7 5 2 17 10 11 10 14 2 9
-16 -9 -17 6 -1 22 9 9 9 12 -2 13 -10 0 -7 4 5 9 17 7 17 9 3 9 -21 1 -23 12
-6 29 9 9 9 12 -1 12 -7 0 -9 5 -6 10 4 6 11 8 16 5 5 -3 6 1 3 9 -3 9 -9 14
-13 12 -4 -3 -7 4 -7 14 0 13 4 16 11 10 17 -14 12 24 -6 46 -12 15 -12 17 0
9 11 -6 13 -4 8 8 -3 9 -1 19 5 23 7 5 8 2 3 -6 -5 -9 -4 -11 4 -6 9 6 9 11 0
22 -6 7 -15 12 -19 9 -5 -3 -12 0 -16 6 -4 7 -3 9 3 6 6 -4 19 3 29 15 17 19
17 21 2 15 -10 -4 -18 -2 -18 2 0 5 7 11 15 15 8 3 15 11 15 17 0 8 -6 7 -17
-2 -16 -12 -17 -12 -6 2 10 12 10 18 0 29 -9 9 -9 11 0 6 15 -8 14 33 -1 53
-9 12 -8 13 3 6 11 -6 13 -3 8 14 -3 14 0 24 9 28 8 3 14 9 14 14 0 4 -6 6
-13 3 -8 -3 -14 2 -14 10 0 8 6 12 15 9 12 -5 12 -2 3 15 -8 15 -8 22 2 25 8
3 6 7 -5 12 -16 6 -16 9 4 25 17 13 20 21 12 31 -18 24 -24 48 -12 55 6 4 8 3
5 -2 -3 -6 -2 -16 3 -23 5 -9 7 -3 7 17 -1 17 -6 28 -12 25 -5 -3 -5 0 2 7 10
11 9 16 -5 27 -16 12 -16 13 0 7 14 -5 16 -1 12 21 -3 20 -1 25 8 19 7 -4 4 3
-6 15 -14 15 -15 20 -5 16 12 -5 15 3 13 40 -1 25 2 48 7 51 5 3 9 10 9 17 0
6 -7 2 -15 -9 -18 -24 -19 -7 -1 28 13 24 12 28 -9 46 -18 15 -26 17 -35 9
-10 -9 -11 -9 -6 1 4 6 2 12 -4 12 -6 0 -9 4 -6 8 3 5 -1 9 -9 9 -8 0 -12 -4
-9 -9 10 -15 -9 -8 -23 10 -10 11 -12 12 -8 2 4 -9 1 -8 -8 3 -11 14 -16 15
-20 5 -4 -8 -6 -7 -6 5 -1 9 -5 17 -11 17 -5 0 -8 -6 -6 -12 1 -7 1 -10 -1 -5
-3 4 -9 5 -14 2 -5 -4 -6 2 -2 12 6 15 4 16 -8 6 -13 -10 -22 -8 -49 12 -36
27 -45 30 -36 16 4 -5 -3 -7 -14 -4 -11 3 -20 13 -20 22 0 14 -2 14 -10 1 -9
-14 -15 -7 -11 14 1 5 -5 3 -14 -4 -21 -17 -31 -5 -14 17 12 16 12 17 -2 6
-12 -10 -18 -10 -27 -1 -7 7 -12 8 -12 3 0 -4 -9 0 -20 10 -11 10 -23 15 -27
12 -3 -4 -1 -7 6 -7 7 0 10 -4 6 -10 -3 -5 -12 -7 -20 -4 -8 4 -12 11 -8 17 4
6 1 7 -8 1 -22 -14 -36 -13 -36 2 0 11 3 11 16 1 14 -11 14 -10 2 5 -9 12 -18
15 -30 9 -15 -8 -55 9 -48 20 1 2 -2 1 -7 -3 -12 -9 -36 2 -36 17 0 8 -4 17
-10 20 -6 3 -7 -1 -4 -10 6 -13 3 -14 -19 -4 -15 7 -24 15 -22 19 4 6 -10 10
-48 11 -11 0 -15 5 -10 12 4 7 0 6 -10 -2 -13 -10 -17 -10 -17 -1 0 8 -8 10
-21 7 -15 -4 -19 -2 -15 9 6 15 -4 19 -19 6 -6 -4 -9 -5 -8 -3 4 6 -30 30 -42
31 -5 0 -3 -5 5 -10 12 -7 11 -9 -6 -8 -15 2 -20 8 -17 23 2 11 1 14 -3 8 -8
-18 -22 -16 -46 7 -15 14 -26 17 -38 10 -13 -7 -22 -5 -31 8 -13 16 -12 16 6
2 19 -14 19 -14 6 2 -7 10 -18 15 -25 11 -20 -13 -38 -12 -32 2 3 10 0 12 -11
8 -12 -5 -15 -2 -11 8 4 10 -2 14 -22 14 -16 0 -26 -4 -22 -9 3 -5 0 -6 -7 -2
-7 5 -10 14 -7 22 3 8 0 11 -8 8 -8 -3 -17 -1 -21 5 -4 8 -12 8 -26 1 -15 -9
-19 -7 -20 7 0 16 -1 16 -9 -2 -6 -14 -9 -16 -10 -5 -2 8 -2 19 -1 24 1 5 -6
3 -15 -5 -12 -9 -15 -9 -10 -1 5 8 -1 12 -19 12 -15 0 -24 4 -20 10 8 13 -8
13 -22 -1 -8 -8 -13 -7 -18 2 -6 8 -4 10 5 4 9 -5 11 -4 6 3 -5 9 -13 9 -27 2
-10 -6 -19 -7 -18 -3 4 22 -3 31 -21 26 -12 -3 -20 0 -20 7 0 8 -11 11 -30 8
-17 -3 -34 0 -37 5 -3 6 -1 7 5 3 6 -3 14 -1 18 6 4 7 4 10 -1 6 -4 -4 -19 -1
-34 6 -14 7 -38 13 -54 12 -20 -1 -26 2 -22 13 4 11 3 11 -9 2 -11 -9 -16 -9
-22 0 -5 8 -3 9 6 4 9 -5 11 -4 6 4 -6 9 -11 9 -22 0 -8 -6 -17 -9 -21 -5 -3
3 0 6 8 6 8 0 1 7 -15 15 -37 19 -45 19 -20 -1 18 -15 18 -15 -2 -5 -12 6 -24
18 -28 26 -4 11 -12 14 -27 10 -15 -5 -19 -4 -14 5 6 9 2 9 -15 0 -18 -9 -21
-9 -15 0 6 9 0 11 -23 8 -26 -4 -29 -2 -22 12 7 14 4 17 -18 15 -15 -1 -37 4
-49 12 -13 8 -23 9 -23 3 0 -5 -5 -10 -10 -10 -7 0 -7 6 -1 18 7 14 6 18 -9
18 -11 0 -16 -6 -13 -16 2 -8 -2 -6 -9 5 -7 11 -20 20 -28 20 -8 0 -14 6 -12
13 1 8 -2 11 -8 7 -6 -3 -8 -10 -5 -15 3 -5 0 -12 -6 -16 -8 -4 -9 -3 -5 4 4
7 2 12 -4 12 -6 0 -8 5 -4 12 5 7 3 8 -7 2 -20 -12 -40 -14 -33 -3 3 5 10 6
16 3 7 -4 8 -2 4 5 -4 6 -11 9 -16 6 -4 -3 -11 1 -13 7 -4 9 -6 9 -6 -1 -1
-11 -5 -10 -17 5 -15 19 -16 19 -10 -1 l6 -20 -16 20 c-8 11 -20 19 -25 18 -5
-2 -9 1 -9 5 0 5 -7 9 -15 9 -8 0 -12 -4 -9 -8 2 -4 -1 -11 -7 -15 -8 -4 -9
-3 -5 4 6 11 -11 17 -36 13 -4 0 -5 9 -3 20 3 15 1 18 -8 11 -19 -16 -27 -15
-47 8 -11 13 -21 17 -25 10 -3 -5 -12 -10 -18 -9 -9 0 -9 2 1 6 6 2 12 9 12
14 0 14 -47 6 -59 -11z m-145 -52 c4 -7 3 -8 -4 -4 -7 4 -12 2 -12 -5 0 -7 -3
-10 -6 -6 -6 5 3 27 11 27 2 0 7 -5 11 -12z m384 -18 c0 -5 -5 -10 -11 -10 -5
0 -7 5 -4 10 3 6 8 10 11 10 2 0 4 -4 4 -10z m-683 -75 c0 -8 -4 -12 -9 -9 -5
3 -6 10 -3 15 9 13 12 11 12 -6z m-174 -50 c-3 -9 -8 -14 -10 -11 -3 3 -2 9 2
15 9 16 15 13 8 -4z m-28 -13 c-3 -3 -11 0 -18 7 -9 10 -8 11 6 5 10 -3 15 -9
12 -12z m1305 -10 c0 -5 -7 -9 -15 -9 -8 0 -12 4 -9 9 3 4 9 8 15 8 5 0 9 -4
9 -8z m195 -80 c-3 -3 -11 0 -18 7 -9 10 -8 11 6 5 10 -3 15 -9 12 -12z m336
-119 c12 -16 12 -17 -2 -6 -9 7 -20 9 -24 5 -5 -4 -5 -1 -1 6 9 16 11 15 27
-5z m207 -88 c-3 -3 -9 2 -12 12 -6 14 -5 15 5 6 7 -7 10 -15 7 -18z m517
-175 c3 -5 1 -10 -4 -10 -6 0 -11 5 -11 10 0 6 2 10 4 10 3 0 8 -4 11 -10z
m33 -25 c-3 -3 -9 2 -12 12 -6 14 -5 15 5 6 7 -7 10 -15 7 -18z m-4454 -73 c3
-5 -1 -9 -9 -9 -8 0 -12 4 -9 9 3 4 7 8 9 8 2 0 6 -4 9 -8z m4836 -77 c0 -12
-19 -12 -23 0 -4 9 -1 12 9 8 7 -3 14 -7 14 -8z m-4810 -285 c0 -5 -5 -10 -11
-10 -5 0 -7 5 -4 10 3 6 8 10 11 10 2 0 4 -4 4 -10z m4790 -60 c0 -5 -2 -10
-4 -10 -3 0 -8 5 -11 10 -3 6 -1 10 4 10 6 0 11 -4 11 -10z m-4773 -106 c-3
-3 -12 -4 -19 -1 -8 3 -5 6 6 6 11 1 17 -2 13 -5z m28 -303 c3 -5 2 -12 -3
-15 -5 -3 -9 1 -9 9 0 17 3 19 12 6z m4681 -576 c-3 -23 -12 -26 -13 -5 -1 11
2 20 7 20 4 0 7 -7 6 -15z m-60 -960 c-1 -8 -5 -17 -8 -21 -5 -4 -4 16 1 34 3
9 9 -1 7 -13z m-486 -835 c0 -5 -5 -10 -11 -10 -5 0 -7 5 -4 10 3 6 8 10 11
10 2 0 4 -4 4 -10z m-124 -78 c-17 -16 -18 -16 -5 5 7 12 15 20 18 17 3 -2 -3
-12 -13 -22z m-116 -56 c0 -2 -6 -9 -14 -15 -11 -9 -16 -9 -22 0 -4 7 -3 9 4
5 6 -3 13 -2 17 4 6 10 15 14 15 6z m-2346 -497 c-4 -7 32 -33 48 -34 4 0 15
-10 23 -23 9 -12 20 -20 24 -18 4 3 8 -1 8 -8 0 -8 -29 9 -64 36 -34 27 -63
51 -63 52 0 2 7 3 15 3 8 0 12 -4 9 -8z m199 -160 c-8 -8 -13 -7 -18 2 -5 8
-4 10 3 5 7 -4 12 -2 12 5 0 7 3 9 7 6 4 -4 2 -12 -4 -18z"/>
<path d="M2830 5070 c0 -5 5 -10 11 -10 5 0 7 5 4 10 -3 6 -8 10 -11 10 -2 0
-4 -4 -4 -10z"/>
<path d="M4455 4481 c-3 -5 -2 -12 3 -15 5 -3 9 1 9 9 0 17 -3 19 -12 6z"/>
<path d="M4770 4366 c0 -2 8 -10 18 -17 15 -13 16 -12 3 4 -13 16 -21 21 -21
13z"/>
<path d="M139 4063 c-13 -16 -12 -17 4 -4 9 7 17 15 17 17 0 8 -8 3 -21 -13z"/>
<path d="M4966 3747 c3 -10 9 -15 12 -12 3 3 0 11 -7 18 -10 9 -11 8 -5 -6z"/>
<path d="M4909 2768 c-6 -21 -5 -37 2 -32 5 3 7 9 4 14 -3 4 1 11 7 13 10 4
10 6 1 6 -7 1 -13 0 -14 -1z"/>
<path d="M4904 2709 c-3 -6 -2 -15 3 -20 5 -5 9 -1 9 11 0 23 -2 24 -12 9z"/>
<path d="M299 2623 c-13 -16 -12 -17 4 -4 9 7 17 15 17 17 0 8 -8 3 -21 -13z"/>
<path d="M4896 2553 c-6 -14 -5 -15 5 -6 7 7 10 15 7 18 -3 3 -9 -2 -12 -12z"/>
<path d="M316 2502 c-3 -5 1 -9 9 -9 8 0 12 4 9 9 -3 4 -7 8 -9 8 -2 0 -6 -4
-9 -8z"/>
<path d="M4855 1850 c10 -11 20 -20 23 -20 3 0 -3 9 -13 20 -10 11 -20 20 -23
20 -3 0 3 -9 13 -20z"/>
<path d="M730 1313 c0 -5 5 -15 10 -23 7 -12 9 -10 7 8 -1 19 -17 33 -17 15z"/>
<path d="M1030 1062 c0 -5 7 -9 15 -9 8 0 12 4 9 9 -3 4 -9 8 -15 8 -5 0 -9
-4 -9 -8z"/>
<path d="M1236 902 c-3 -5 1 -9 9 -9 8 0 12 4 9 9 -3 4 -7 8 -9 8 -2 0 -6 -4
-9 -8z"/>
<path d="M3966 891 c-3 -5 1 -11 9 -14 9 -4 12 -1 8 9 -6 16 -10 17 -17 5z"/>
<path d="M3875 840 c-3 -5 -1 -10 4 -10 6 0 11 5 11 10 0 6 -2 10 -4 10 -3 0
-8 -4 -11 -10z"/>
<path d="M1493 702 c10 -10 14 -22 10 -27 -5 -4 -2 -5 5 -1 11 6 10 12 -4 27
-9 10 -19 19 -22 19 -3 0 2 -8 11 -18z"/>
<path d="M2625 141 c-3 -5 -2 -12 3 -15 5 -3 9 1 9 9 0 17 -3 19 -12 6z"/>
</g>
</svg>
